<svg width="52" height="34" viewBox="0 0 52 34" fill="none" xmlns="http://www.w3.org/2000/svg">
<rect x="0.500015" y="0.5" width="51" height="33" rx="9.5" fill="white" stroke="#FF0000"/>
<path d="M31.6103 12.6398C31.4511 12.7529 31.2756 12.8228 31.0929 12.8634C31.3112 17.0488 31.7409 21.4183 30.2558 25.4136C30.1843 25.6056 30.0533 25.7258 29.903 25.7874C29.8513 25.8618 29.7778 25.9279 29.6718 25.9767C27.0177 27.1914 24.1969 27.1382 21.4755 26.1651C21.1199 26.0378 21.0116 25.69 21.0764 25.3936C20.5596 21.3397 20.0692 17.1659 20.4748 13.0779C20.1538 13.005 19.8538 12.8655 19.6307 12.6099C19.1902 12.1045 19.2749 11.4543 19.4919 10.8744C19.4914 10.7131 19.5651 10.5588 19.7326 10.4529C19.799 10.3999 19.8779 10.363 19.962 10.3435C21.1809 9.80666 22.4783 9.5261 23.8054 9.39573C23.7821 9.27352 23.7923 9.13972 23.8498 9.00238C24.2642 8.01748 25.0894 6.85632 26.276 7.01458C27.4184 7.16684 27.9721 8.31587 28.2034 9.36953C28.9665 9.41086 29.7221 9.4628 30.46 9.50666C30.4652 9.50687 30.4697 9.50869 30.4748 9.50911C30.5098 9.50451 30.5454 9.50222 30.5818 9.50666C31.3728 9.60246 32.0387 9.99226 32.385 10.7579C32.431 10.8596 32.4538 10.967 32.4562 11.0723C32.4869 11.176 32.489 11.2953 32.4464 11.4291C32.286 11.9307 32.0349 12.3379 31.6103 12.6398ZM22.2576 25.1101C24.5082 25.8244 26.8566 25.9008 29.0578 24.8933C29.0912 24.8781 29.1243 24.8689 29.1571 24.8594C30.5088 21.0242 30.0852 16.8535 29.8753 12.8503C27.1881 12.654 24.4813 12.6112 21.8052 12.9588C21.7736 12.9931 21.7373 13.0229 21.6967 13.0491C21.2955 17.0506 21.7533 21.1369 22.2576 25.1101ZM26.1711 8.25481C25.6406 8.18398 25.2688 8.818 25.0398 9.31599C25.6732 9.29333 26.3097 9.2971 26.9442 9.31599C26.8154 8.83486 26.59 8.31059 26.1711 8.25481ZM31.002 10.9185C31.0769 10.9853 30.8004 10.8126 30.8882 10.8502C30.8268 10.8238 30.7622 10.806 30.698 10.7878C30.7127 10.7919 30.497 10.7506 30.5819 10.7607C30.5744 10.7598 30.5673 10.7576 30.5599 10.7565C30.5277 10.7596 30.4956 10.7629 30.4602 10.7607C27.2887 10.5713 23.5987 10.1109 20.5867 11.4224C20.5771 11.4516 20.5648 11.4797 20.5561 11.5094C20.544 11.5524 20.534 11.5962 20.5255 11.6401C20.5248 11.6498 20.5242 11.6602 20.5231 11.6753C20.5223 11.698 20.524 11.7208 20.5248 11.7435C20.5252 11.7454 20.5263 11.7498 20.5269 11.752C20.5398 11.7498 20.6281 11.8153 20.5921 11.8083C20.659 11.8338 20.7285 11.8518 20.7978 11.8678C20.831 11.8756 20.8747 11.881 20.9242 11.885C20.9887 11.8368 21.0689 11.8008 21.1718 11.7863C24.259 11.3495 27.3591 11.3881 30.4602 11.6384C30.5162 11.643 30.5667 11.6556 30.6145 11.6713C30.9168 11.6669 31.1096 11.5157 31.236 11.1953C31.1776 11.0943 31.1163 11.0205 31.002 10.9185Z" fill="#FF0000"/>
<path d="M27.9046 14.8998C27.9119 14.0914 29.1286 14.0907 29.1216 14.8998C29.1037 16.9202 28.8777 18.9176 28.6347 20.9197C28.5389 21.7113 27.3208 21.721 27.4177 20.9197C27.6608 18.9174 27.8866 16.9201 27.9046 14.8998Z" fill="#FF0000"/>
<path d="M25.349 14.7744C25.3911 13.9701 26.6082 13.9657 26.566 14.7744C26.45 16.9923 26.3724 19.212 26.14 21.4215C26.0564 22.2168 24.8386 22.2251 24.923 21.4215C25.1554 19.212 25.2332 16.9923 25.349 14.7744Z" fill="#FF0000"/>
<path d="M23.8669 14.8783C23.5392 17.3594 23.696 19.8674 23.7062 22.362C23.7095 23.1708 22.4927 23.1706 22.4892 22.362C22.4785 19.7463 22.35 17.1453 22.6934 14.5447C22.799 13.7466 23.9715 14.0879 23.8669 14.8783Z" fill="#FF0000"/>
</svg>
